# xmcd CD database file
#
# Track frame offsets:
#	150
#	8722
#	22959
#	34832
#	37965
#	46457
#	65583
#	90363
#	102527
#	116992
#	136906
#	145665
#	164587
#
# Disc length: 2462 seconds
#
# Revision: 1
# Processed by: cddbd v1.5.2PL0 Copyright (c) Steve Scherf et al.
# Submitted via: CDex 1.50beta10
#
DISCID=ab099c0d
DTITLE=Cowboy - Reach For The Sky
DYEAR=1970
DGENRE=Southern Rock
TTITLE0=Opening
TTITLE1=Livin' In The Country
TTITLE2=Song Of Love and Peace
TTITLE3=Amelia's Earache
TTITLE4=Pick Your Nose
TTITLE5=Pretty Friend
TTITLE6=Everything Here
TTITLE7=Stick Together
TTITLE8=Use Your Situation
TTITLE9=It's Time
TTITLE10=Honey Ain't Nowhere
TTITLE11=Rip and Snort
TTITLE12=Josephine, Beyond Compare
EXTD=YEAR: 1970
EXTT0=
EXTT1=
EXTT2=
EXTT3=
EXTT4=
EXTT5=
EXTT6=
EXTT7=
EXTT8=
EXTT9=
EXTT10=
EXTT11=
EXTT12=
PLAYORDER=
